999
FreeCAD v1.0 39285 (Git)
  0
SECTION
  2
HEADER
  9
$ACADVER
  1
AC1014
  9
$ACADMAINTVER
 70
     9
  9
$DWGCODEPAGE
  3
ANSI_1252
  9
$TEXTSTYLE
  7
STANDARD
  9
$DIMSTYLE
  2
STANDARD
  9
$DIMTXSTY
  7
STANDARD
  9
$CMLSTYLE
  2
STANDARD
  9
$LUNITS
 70
2
  9
$INSUNITS
 70
4
  9
$PEXTMAX
 10
50
 20
50
 30
50
  9
$PEXTMIN
 10
0
 20
0
 30
0
  9
$HANDSEED
  5
FFFF
  0
ENDSEC
  0
SECTION
  2
CLASSES
  0
CLASS
  1
ACDBDICTIONARYWDFLT
  2
AcDbDictionaryWithDefault
  3
ObjectDBX Classes
 90
        0
280
     0
281
     0
  0
CLASS
  1
XRECORD
  2
AcDbXrecord
  3
ObjectDBX Classes
 90
        0
280
     0
281
     0
  0
CLASS
  1
LWPOLYLINE
  2
AcDbPolyline
  3
ObjectDBX Classes
 90
        0
280
     0
281
     1
  0
ENDSEC
  0
SECTION
  2
TABLES
  0
TABLE
  2
VPORT
  5
20
330
0
100
AcDbSymbolTable
 70
     1
  0
VPORT
  5
21
330
20
100
AcDbSymbolTableRecord
100
AcDbViewportTableRecord
  2
*ACTIVE
 70
     0
  0
ENDTAB
  0
TABLE
  2
LTYPE
  5
22
330
0
100
AcDbSymbolTable
 70
     1
  0
LTYPE
  5
23
330
21
100
AcDbSymbolTableRecord
100
AcDbLinetypeTableRecord
  2
BYBLOCK
 70
     0
  3

 72
    65
 73
     0
 40
0.0
  0
LTYPE
  5
24
330
21
100
AcDbSymbolTableRecord
100
AcDbLinetypeTableRecord
  2
BYLAYER
 70
     0
  3

 72
    65
 73
     0
 40
0.0
  0
LTYPE
  5
25
330
21
100
AcDbSymbolTableRecord
100
AcDbLinetypeTableRecord
  2
CONTINUOUS
 70
     0
  3
Solid line
 72
    65
 73
     0
 40
0.0
  0
ENDTAB
  0
TABLE
  2
LAYER
  5
B61
330
0
100
AcDbSymbolTable
 70
5
  0
LAYER
  5
B62
330
B61
100
AcDbSymbolTableRecord
100
AcDbLayerTableRecord
  2
0
 70
   0
 62
   7
  6
CONTINUOUS
  0
LAYER
  5
B63
330
B61
100
AcDbSymbolTableRecord
100
AcDbLayerTableRecord
  2
View
 70
    0
 62
    7
  6
CONTINUOUS
  0
LAYER
  5
B64
330
B61
100
AcDbSymbolTableRecord
100
AcDbLayerTableRecord
  2
ProjItem
 70
    0
 62
    7
  6
CONTINUOUS
  0
LAYER
  5
B65
330
B61
100
AcDbSymbolTableRecord
100
AcDbLayerTableRecord
  2
ProjItem001
 70
    0
 62
    7
  6
CONTINUOUS
  0
LAYER
  5
B66
330
B61
100
AcDbSymbolTableRecord
100
AcDbLayerTableRecord
  2
ProjItem002
 70
    0
 62
    7
  6
CONTINUOUS
  0
ENDTAB
  0
TABLE
  2
STYLE
  5
70
330
0
100
AcDbSymbolTable
 70
     2
  0
STYLE
  5
71
330
70
100
AcDbSymbolTableRecord
100
AcDbTextStyleTableRecord
  2
STANDARD
 70
     0
 40
0.0
 41
1.0
 50
0.0
 71
     0
 42
2.5
  3
arial.ttf
  4

  0
STYLE
  5
72
330
70
100
AcDbSymbolTableRecord
100
AcDbTextStyleTableRecord
  2
ANNOTATIVE
 70
     0
 40
0.0
 41
1.0
 50
0.0
 71
     0
 42
2.5
  3
arial.ttf
  4

  0
ENDTAB
  0
TABLE
  2
VIEW
  5
73
330
0
100
AcDbSymbolTable
 70
     0
  0
ENDTAB
  0
TABLE
  2
UCS
  5
74
330
0
100
AcDbSymbolTable
 70
     0
  0
ENDTAB
  0
TABLE
  2
APPID
  5
75
330
0
100
AcDbSymbolTable
 70
     2
  0
APPID
  5
76
330
75
100
AcDbSymbolTableRecord
100
AcDbRegAppTableRecord
  2
ACAD
 70
     0
  0
APPID
  5
77
330
75
100
AcDbSymbolTableRecord
100
AcDbRegAppTableRecord
  2
ACADANNOTATIVE
 70
     0
  0
ENDTAB
  0
TABLE
  2
DIMSTYLE
  5
78
330
0
100
AcDbSymbolTable
 70
     2
  0
DIMSTYLE
105
79
330
78
100
AcDbSymbolTableRecord
100
AcDbDimStyleTableRecord
  2
STANDARD
 70
     0
  3

  4

  5

  6

  7

 40
0.0
 41
2.5
 42
0.625
 43
3.75
 44
1.25
 45
0.0
 46
0.0
 47
0.0
 48
0.0
140
2.5
141
2.5
142
0.0
143
0.03937007874016
144
1.0
145
0.0
146
1.0
147
0.625
 71
     0
 72
     0
 73
     0
 74
     0
 75
     0
 76
     0
 77
     1
 78
     8
170
     0
171
     3
172
     1
173
     0
174
     0
175
     0
176
     0
177
     0
178
     0
270
     2
271
     2
272
     2
273
     2
274
     3
340
71
275
     0
280
     0
281
     0
282
     0
283
     0
284
     8
285
     0
286
     0
287
     3
288
     0
  0
ENDTAB
  0
TABLE
  2
BLOCK_RECORD
  5
A01
330
0
100
AcDbSymbolTable
  70
5
  0
BLOCK_RECORD
  5
A02
330
A01
100
AcDbSymbolTableRecord
100
AcDbBlockTableRecord
  2
*MODEL_SPACE
  0
BLOCK_RECORD
  5
A03
330
A01
100
AcDbSymbolTableRecord
100
AcDbBlockTableRecord
  2
*PAPER_SPACE
  0
ENDTAB
  0
ENDSEC
  0
SECTION
  2
BLOCKS
  0
BLOCK
  5
A04
330
A02
100
AcDbEntity
  8
0
100
AcDbBlockBegin
  2
*MODEL_SPACE
 70
   0
 10
0
 20
0
 30
0
  3
*MODEL_SPACE
  1
 
  0
ENDBLK
  5
A05
330
A02
100
AcDbEntity
  8
0
100
AcDbBlockEnd
  0
BLOCK
  5
A06
330
A03
100
AcDbEntity
 67
1
  8
0
100
AcDbBlockBegin
  2
*PAPER_SPACE
 70
   0
 10
0
 20
0
 30
0
  3
*PAPER_SPACE
  1
 
  0
ENDBLK
  5
A07
330
A03
100
AcDbEntity
 67
    1
  8
0
100
AcDbBlockEnd
  0
ENDSEC
  0
SECTION
  2
ENTITIES
  0
LINE
  5
A08
330
A02
100
AcDbEntity
  8
View
100
AcDbLine
 10
68.933404612
 20
200.224731374
 30
0.000000000
 11
64.933404612
 21
200.224731374
 31
0.000000000
  0
LINE
  5
A09
330
A02
100
AcDbEntity
  8
View
100
AcDbLine
 10
64.933404612
 20
200.224731374
 30
0.000000000
 11
64.933404612
 21
225.224731374
 31
0.000000000
  0
LINE
  5
A0A
330
A02
100
AcDbEntity
  8
View
100
AcDbLine
 10
72.933404612
 20
296.224731374
 30
0.000000000
 11
118.933404612
 21
296.224731374
 31
0.000000000
  0
LINE
  5
A0B
330
A02
100
AcDbEntity
  8
View
100
AcDbLine
 10
168.933404612
 20
296.224731374
 30
0.000000000
 11
214.933404612
 21
296.224731374
 31
0.000000000
  0
LINE
  5
A0C
330
A02
100
AcDbEntity
  8
View
100
AcDbLine
 10
222.933404612
 20
200.224731374
 30
0.000000000
 11
218.933404612
 21
200.224731374
 31
0.000000000
  0
LINE
  5
A0D
330
A02
100
AcDbEntity
  8
View
100
AcDbLine
 10
72.933404612
 20
300.224731374
 30
0.000000000
 11
214.933404612
 21
300.224731374
 31
0.000000000
  0
LINE
  5
A0E
330
A02
100
AcDbEntity
  8
View
100
AcDbLine
 10
222.933404612
 20
225.224731374
 30
0.000000000
 11
222.933404612
 21
200.224731374
 31
0.000000000
  0
LINE
  5
A0F
330
A02
100
AcDbEntity
  8
View
100
AcDbLine
 10
118.933404612
 20
294.224731374
 30
0.000000000
 11
118.933404612
 21
296.224731374
 31
0.000000000
  0
LINE
  5
A10
330
A02
100
AcDbEntity
  8
View
100
AcDbLine
 10
168.933404612
 20
294.224731374
 30
0.000000000
 11
168.933404612
 21
296.224731374
 31
0.000000000
  0
LINE
  5
A11
330
A02
100
AcDbEntity
  8
View
100
AcDbLine
 10
168.933404612
 20
294.224731374
 30
0.000000000
 11
118.933404612
 21
294.224731374
 31
0.000000000
  0
LINE
  5
A12
330
A02
100
AcDbEntity
  8
View
100
AcDbLine
 10
168.933404612
 20
296.224731374
 30
0.000000000
 11
118.933404612
 21
296.224731374
 31
0.000000000
  0
LINE
  5
A13
330
A02
100
AcDbEntity
  8
View
100
AcDbLine
 10
227.933404612
 20
242.724731374
 30
0.000000000
 11
227.933404612
 21
230.224731374
 31
0.000000000
  0
LINE
  5
A14
330
A02
100
AcDbEntity
  8
View
100
AcDbLine
 10
227.933404612
 20
227.724731374
 30
0.000000000
 11
227.933404612
 21
221.724731374
 31
0.000000000
  0
LINE
  5
A15
330
A02
100
AcDbEntity
  8
View
100
AcDbLine
 10
227.933404612
 20
221.724731374
 30
0.000000000
 11
233.933404612
 21
221.724731374
 31
0.000000000
  0
LINE
  5
A16
330
A02
100
AcDbEntity
  8
View
100
AcDbLine
 10
223.933404612
 20
217.724731374
 30
0.000000000
 11
236.433404612
 21
217.724731374
 31
0.000000000
  0
LINE
  5
A17
330
A02
100
AcDbEntity
  8
View
100
AcDbLine
 10
236.433404612
 20
217.724731374
 30
0.000000000
 11
236.433404612
 21
221.724731374
 31
0.000000000
  0
LINE
  5
A18
330
A02
100
AcDbEntity
  8
View
100
AcDbLine
 10
227.933404612
 20
230.224731374
 30
0.000000000
 11
236.433404612
 21
221.724731374
 31
0.000000000
  0
LINE
  5
A19
330
A02
100
AcDbEntity
  8
View
100
AcDbLine
 10
223.933404612
 20
230.224731374
 30
0.000000000
 11
227.933404612
 21
230.224731374
 31
0.000000000
  0
LINE
  5
A1A
330
A02
100
AcDbEntity
  8
View
100
AcDbLine
 10
223.933404612
 20
217.724731374
 30
0.000000000
 11
223.933404612
 21
230.224731374
 31
0.000000000
  0
LINE
  5
A1B
330
A02
100
AcDbEntity
  8
View
100
AcDbLine
 10
233.933404612
 20
221.724731374
 30
0.000000000
 11
227.933404612
 21
227.724731374
 31
0.000000000
  0
LINE
  5
A1C
330
A02
100
AcDbEntity
  8
View
100
AcDbLine
 10
223.933404612
 20
230.224731374
 30
0.000000000
 11
223.933404612
 21
238.724731374
 31
0.000000000
  0
LINE
  5
A1D
330
A02
100
AcDbEntity
  8
View
100
AcDbLine
 10
236.433404612
 20
217.724731374
 30
0.000000000
 11
236.433404612
 21
192.724731374
 31
0.000000000
  0
LINE
  5
A1E
330
A02
100
AcDbEntity
  8
View
100
AcDbLine
 10
236.433404612
 20
192.724731374
 30
0.000000000
 11
232.433404612
 21
192.724731374
 31
0.000000000
  0
LINE
  5
A1F
330
A02
100
AcDbEntity
  8
View
100
AcDbLine
 10
232.433404612
 20
192.724731374
 30
0.000000000
 11
232.433404612
 21
217.724731374
 31
0.000000000
  0
LINE
  5
A20
330
A02
100
AcDbEntity
  8
View
100
AcDbLine
 10
223.933404612
 20
238.724731374
 30
0.000000000
 11
222.933404612
 21
238.724731374
 31
0.000000000
  0
LINE
  5
A21
330
A02
100
AcDbEntity
  8
View
100
AcDbLine
 10
227.933404612
 20
242.724731374
 30
0.000000000
 11
222.933404612
 21
242.724731374
 31
0.000000000
  0
LINE
  5
A22
330
A02
100
AcDbEntity
  8
View
100
AcDbLine
 10
59.933404612
 20
242.724731374
 30
0.000000000
 11
59.933404612
 21
221.724731374
 31
0.000000000
  0
LINE
  5
A23
330
A02
100
AcDbEntity
  8
View
100
AcDbLine
 10
59.933404612
 20
221.724731374
 30
0.000000000
 11
51.433404612
 21
221.724731374
 31
0.000000000
  0
LINE
  5
A24
330
A02
100
AcDbEntity
  8
View
100
AcDbLine
 10
59.933404612
 20
230.224731374
 30
0.000000000
 11
51.433404612
 21
221.724731374
 31
0.000000000
  0
LINE
  5
A25
330
A02
100
AcDbEntity
  8
View
100
AcDbLine
 10
53.933404612
 20
221.724731374
 30
0.000000000
 11
59.933404612
 21
227.724731374
 31
0.000000000
  0
LINE
  5
A26
330
A02
100
AcDbEntity
  8
View
100
AcDbLine
 10
63.933404612
 20
217.724731374
 30
0.000000000
 11
63.933404612
 21
238.724731374
 31
0.000000000
  0
LINE
  5
A27
330
A02
100
AcDbEntity
  8
View
100
AcDbLine
 10
51.433404612
 20
221.724731374
 30
0.000000000
 11
51.433404612
 21
192.724731374
 31
0.000000000
  0
LINE
  5
A28
330
A02
100
AcDbEntity
  8
View
100
AcDbLine
 10
51.433404612
 20
192.724731374
 30
0.000000000
 11
55.433404612
 21
192.724731374
 31
0.000000000
  0
LINE
  5
A29
330
A02
100
AcDbEntity
  8
View
100
AcDbLine
 10
55.433404612
 20
192.724731374
 30
0.000000000
 11
55.433404612
 21
217.724731374
 31
0.000000000
  0
LINE
  5
A2A
330
A02
100
AcDbEntity
  8
View
100
AcDbLine
 10
55.433404612
 20
217.724731374
 30
0.000000000
 11
63.933404612
 21
217.724731374
 31
0.000000000
  0
LINE
  5
A2B
330
A02
100
AcDbEntity
  8
View
100
AcDbLine
 10
63.933404612
 20
238.724731374
 30
0.000000000
 11
64.933404612
 21
238.724731374
 31
0.000000000
  0
LINE
  5
A2C
330
A02
100
AcDbEntity
  8
View
100
AcDbLine
 10
64.933404612
 20
242.724731374
 30
0.000000000
 11
59.933404612
 21
242.724731374
 31
0.000000000
  0
LINE
  5
A2D
330
A02
100
AcDbEntity
  8
View
100
AcDbLine
 10
218.933404612
 20
200.224731374
 30
0.000000000
 11
214.933404612
 21
200.224731374
 31
0.000000000
  0
LINE
  5
A2E
330
A02
100
AcDbEntity
  8
View
100
AcDbLine
 10
218.933404612
 20
204.224731374
 30
0.000000000
 11
214.933404612
 21
204.224731374
 31
0.000000000
  0
LINE
  5
A2F
330
A02
100
AcDbEntity
  8
View
100
AcDbLine
 10
218.933404612
 20
200.224731374
 30
0.000000000
 11
218.933404612
 21
204.224731374
 31
0.000000000
  0
LINE
  5
A30
330
A02
100
AcDbEntity
  8
View
100
AcDbLine
 10
214.933404612
 20
200.224731374
 30
0.000000000
 11
214.933404612
 21
204.224731374
 31
0.000000000
  0
LINE
  5
A31
330
A02
100
AcDbEntity
  8
View
100
AcDbLine
 10
218.933404612
 20
300.224731374
 30
0.000000000
 11
214.933404612
 21
300.224731374
 31
0.000000000
  0
LINE
  5
A32
330
A02
100
AcDbEntity
  8
View
100
AcDbLine
 10
218.933404612
 20
300.224731374
 30
0.000000000
 11
218.933404612
 21
204.224731374
 31
0.000000000
  0
LINE
  5
A33
330
A02
100
AcDbEntity
  8
View
100
AcDbLine
 10
214.933404612
 20
300.224731374
 30
0.000000000
 11
214.933404612
 21
204.224731374
 31
0.000000000
  0
LINE
  5
A34
330
A02
100
AcDbEntity
  8
View
100
AcDbLine
 10
218.933404612
 20
300.224731374
 30
0.000000000
 11
222.933404612
 21
300.224731374
 31
0.000000000
  0
LINE
  5
A35
330
A02
100
AcDbEntity
  8
View
100
AcDbLine
 10
218.933404612
 20
225.224731374
 30
0.000000000
 11
222.933404612
 21
225.224731374
 31
0.000000000
  0
LINE
  5
A36
330
A02
100
AcDbEntity
  8
View
100
AcDbLine
 10
222.933404612
 20
225.224731374
 30
0.000000000
 11
222.933404612
 21
300.224731374
 31
0.000000000
  0
CIRCLE
  5
A37
330
A02
100
AcDbEntity
  8
View
100
AcDbCircle
 10
220.933404612
 20
265.224731374
 30
0.000000000
 40
1.000000000
  0
CIRCLE
  5
A38
330
A02
100
AcDbEntity
  8
View
100
AcDbCircle
 10
220.933404612
 20
237.724731374
 30
0.000000000
 40
1.000000000
  0
LINE
  5
A39
330
A02
100
AcDbEntity
  8
View
100
AcDbLine
 10
72.933404612
 20
200.224731374
 30
0.000000000
 11
68.933404612
 21
200.224731374
 31
0.000000000
  0
LINE
  5
A3A
330
A02
100
AcDbEntity
  8
View
100
AcDbLine
 10
72.933404612
 20
204.224731374
 30
0.000000000
 11
68.933404612
 21
204.224731374
 31
0.000000000
  0
LINE
  5
A3B
330
A02
100
AcDbEntity
  8
View
100
AcDbLine
 10
72.933404612
 20
200.224731374
 30
0.000000000
 11
72.933404612
 21
204.224731374
 31
0.000000000
  0
LINE
  5
A3C
330
A02
100
AcDbEntity
  8
View
100
AcDbLine
 10
68.933404612
 20
200.224731374
 30
0.000000000
 11
68.933404612
 21
204.224731374
 31
0.000000000
  0
LINE
  5
A3D
330
A02
100
AcDbEntity
  8
View
100
AcDbLine
 10
72.933404612
 20
300.224731374
 30
0.000000000
 11
68.933404612
 21
300.224731374
 31
0.000000000
  0
LINE
  5
A3E
330
A02
100
AcDbEntity
  8
View
100
AcDbLine
 10
72.933404612
 20
300.224731374
 30
0.000000000
 11
72.933404612
 21
204.224731374
 31
0.000000000
  0
LINE
  5
A3F
330
A02
100
AcDbEntity
  8
View
100
AcDbLine
 10
68.933404612
 20
300.224731374
 30
0.000000000
 11
68.933404612
 21
204.224731374
 31
0.000000000
  0
LINE
  5
A40
330
A02
100
AcDbEntity
  8
View
100
AcDbLine
 10
68.933404612
 20
300.224731374
 30
0.000000000
 11
64.933404612
 21
300.224731374
 31
0.000000000
  0
LINE
  5
A41
330
A02
100
AcDbEntity
  8
View
100
AcDbLine
 10
68.933404612
 20
225.224731374
 30
0.000000000
 11
64.933404612
 21
225.224731374
 31
0.000000000
  0
LINE
  5
A42
330
A02
100
AcDbEntity
  8
View
100
AcDbLine
 10
64.933404612
 20
225.224731374
 30
0.000000000
 11
64.933404612
 21
300.224731374
 31
0.000000000
  0
CIRCLE
  5
A43
330
A02
100
AcDbEntity
  8
View
100
AcDbCircle
 10
66.933404612
 20
265.224731374
 30
0.000000000
 40
1.000000000
  0
CIRCLE
  5
A44
330
A02
100
AcDbEntity
  8
View
100
AcDbCircle
 10
66.933404612
 20
237.724731374
 30
0.000000000
 40
1.000000000
  0
LINE
  5
A45
330
A02
100
AcDbEntity
  8
ProjItem
100
AcDbLine
 10
419.721979206
 20
308.869812895
 30
0.000000000
 11
416.893552082
 21
307.236819733
 31
0.000000000
  0
LINE
  5
A46
330
A02
100
AcDbEntity
  8
ProjItem
100
AcDbLine
 10
416.893552082
 20
310.502806057
 30
0.000000000
 11
414.065124957
 21
308.869812895
 31
0.000000000
  0
LINE
  5
A47
330
A02
100
AcDbEntity
  8
ProjItem
100
AcDbLine
 10
419.721979206
 20
308.869812895
 30
0.000000000
 11
416.893552082
 21
310.502806057
 31
0.000000000
  0
LINE
  5
A48
330
A02
100
AcDbEntity
  8
ProjItem
100
AcDbLine
 10
416.893552082
 20
307.236819733
 30
0.000000000
 11
414.065124957
 21
308.869812895
 31
0.000000000
  0
LINE
  5
A49
330
A02
100
AcDbEntity
  8
ProjItem
100
AcDbLine
 10
419.721979206
 20
329.282227418
 30
0.000000000
 11
419.721979206
 21
308.869812895
 31
0.000000000
  0
LINE
  5
A4A
330
A02
100
AcDbEntity
  8
ProjItem
100
AcDbLine
 10
416.893552082
 20
310.502806057
 30
0.000000000
 11
416.893552082
 21
392.152464149
 31
0.000000000
  0
LINE
  5
A4B
330
A02
100
AcDbEntity
  8
ProjItem
100
AcDbLine
 10
414.065124957
 20
308.869812895
 30
0.000000000
 11
414.065124957
 21
323.974999642
 31
0.000000000
  0
LINE
  5
A4C
330
A02
100
AcDbEntity
  8
ProjItem
100
AcDbLine
 10
414.065124957
 20
346.836903908
 30
0.000000000
 11
414.065124957
 21
390.519470988
 31
0.000000000
  0
LINE
  5
A4D
330
A02
100
AcDbEntity
  8
ProjItem
100
AcDbLine
 10
416.893552082
 20
392.152464149
 30
0.000000000
 11
414.065124957
 21
390.519470988
 31
0.000000000
  0
ELLIPSE
  5
A4E
330
A02
100
AcDbEntity
  8
ProjItem
100
AcDbEllipse
 10
415.479338519
 20
330.098723999
 30
0.000000000
 11
-0.500000000
 21
-0.866025404
 31
0.000000000
 40
0.577350269
 41
-3.926991049
 42
-3.926990585
  0
LINE
  5
A4F
330
A02
100
AcDbEntity
  8
ProjItem
100
AcDbLine
 10
431.527588075
 20
380.437513206
 30
0.000000000
 11
455.077318266
 21
366.841070141
 31
0.000000000
  0
LINE
  5
A50
330
A02
100
AcDbEntity
  8
ProjItem
100
AcDbLine
 10
491.846870887
 20
345.612159037
 30
0.000000000
 11
522.959569260
 21
327.649234256
 31
0.000000000
  0
LINE
  5
A51
330
A02
100
AcDbEntity
  8
ProjItem
100
AcDbLine
 10
528.616423509
 20
245.999576163
 30
0.000000000
 11
525.787996384
 21
247.632569325
 31
0.000000000
  0
LINE
  5
A52
330
A02
100
AcDbEntity
  8
ProjItem
100
AcDbLine
 10
428.453210765
 20
385.478492097
 30
0.000000000
 11
457.905745390
 21
368.474063303
 31
0.000000000
  0
LINE
  5
A53
330
A02
100
AcDbEntity
  8
ProjItem
100
AcDbLine
 10
494.675298012
 20
347.245152198
 30
0.000000000
 11
522.959569260
 21
330.915220580
 31
0.000000000
  0
LINE
  5
A54
330
A02
100
AcDbEntity
  8
ProjItem
100
AcDbLine
 10
528.616423509
 20
249.265562487
 30
0.000000000
 11
528.616423509
 21
245.999576163
 31
0.000000000
  0
LINE
  5
A55
330
A02
100
AcDbEntity
  8
ProjItem
100
AcDbLine
 10
434.601965384
 20
375.396534315
 30
0.000000000
 11
452.248891141
 21
365.208076979
 31
0.000000000
  0
LINE
  5
A56
330
A02
100
AcDbEntity
  8
ProjItem
100
AcDbLine
 10
489.018443763
 20
343.979165875
 30
0.000000000
 11
522.959569260
 21
324.383247932
 31
0.000000000
  0
LINE
  5
A57
330
A02
100
AcDbEntity
  8
ProjItem
100
AcDbLine
 10
522.959569260
 20
245.999576163
 30
0.000000000
 11
522.959569260
 21
249.265562487
 31
0.000000000
  0
LINE
  5
A58
330
A02
100
AcDbEntity
  8
ProjItem
100
AcDbLine
 10
525.787996384
 20
244.366583001
 30
0.000000000
 11
522.959569260
 21
245.999576163
 31
0.000000000
  0
LINE
  5
A59
330
A02
100
AcDbEntity
  8
ProjItem
100
AcDbLine
 10
525.787996384
 20
247.632569325
 30
0.000000000
 11
522.959569260
 21
245.999576163
 31
0.000000000
  0
LINE
  5
A5A
330
A02
100
AcDbEntity
  8
ProjItem
100
AcDbLine
 10
528.616423509
 20
245.999576163
 30
0.000000000
 11
525.787996384
 21
244.366583001
 31
0.000000000
  0
LINE
  5
A5B
330
A02
100
AcDbEntity
  8
ProjItem
100
AcDbLine
 10
471.340774233
 20
374.597787659
 30
0.000000000
 11
471.340774233
 21
376.230780821
 31
0.000000000
  0
LINE
  5
A5C
330
A02
100
AcDbEntity
  8
ProjItem
100
AcDbLine
 10
435.985435174
 20
354.185373136
 30
0.000000000
 11
435.985435174
 21
355.818366298
 31
0.000000000
  0
LINE
  5
A5D
330
A02
100
AcDbEntity
  8
ProjItem
100
AcDbLine
 10
471.340774233
 20
374.597787659
 30
0.000000000
 11
444.529642113
 21
359.118373313
 31
0.000000000
  0
LINE
  5
A5E
330
A02
100
AcDbEntity
  8
ProjItem
100
AcDbLine
 10
439.985288596
 20
356.494689586
 30
0.000000000
 11
435.985435174
 21
354.185373136
 31
0.000000000
  0
LINE
  5
A5F
330
A02
100
AcDbEntity
  8
ProjItem
100
AcDbLine
 10
471.340774233
 20
376.230780821
 30
0.000000000
 11
443.793072549
 21
360.326107839
 31
0.000000000
  0
LINE
  5
A60
330
A02
100
AcDbEntity
  8
ProjItem
100
AcDbLine
 10
439.248719032
 20
357.702424112
 30
0.000000000
 11
435.985435174
 21
355.818366298
 31
0.000000000
  0
LINE
  5
A61
330
A02
100
AcDbEntity
  8
ProjItem
100
AcDbLine
 10
435.985435174
 20
354.185373136
 30
0.000000000
 11
444.332955359
 21
349.365930110
 31
0.000000000
  0
LINE
  5
A62
330
A02
100
AcDbEntity
  8
ProjItem
100
AcDbLine
 10
453.816823569
 20
343.890416246
 30
0.000000000
 11
471.340774233
 21
333.772958613
 31
0.000000000
  0
LINE
  5
A63
330
A02
100
AcDbEntity
  8
ProjItem
100
AcDbLine
 10
506.696113292
 20
354.185373136
 30
0.000000000
 11
506.696113292
 21
355.818366298
 31
0.000000000
  0
LINE
  5
A64
330
A02
100
AcDbEntity
  8
ProjItem
100
AcDbLine
 10
471.340774233
 20
333.772958613
 30
0.000000000
 11
506.696113292
 21
354.185373136
 31
0.000000000
  0
LINE
  5
A65
330
A02
100
AcDbEntity
  8
ProjItem
100
AcDbLine
 10
506.696113292
 20
354.185373136
 30
0.000000000
 11
471.340774233
 21
374.597787659
 31
0.000000000
  0
ELLIPSE
  5
A66
330
A02
100
AcDbEntity
  8
ProjItem
100
AcDbEllipse
 10
462.501939468
 20
359.288476767
 30
0.000000000
 11
1.000000000
 21
0.000000000
 31
0.000000000
 40
0.577350269
 41
-0.000000000
 42
-3.926990817
  0
ELLIPSE
  5
A67
330
A02
100
AcDbEntity
  8
ProjItem
100
AcDbEllipse
 10
462.501939468
 20
359.288476767
 30
0.000000000
 11
1.000000000
 21
0.000000000
 31
0.000000000
 40
0.577350269
 41
-3.141592654
 42
-0.000000000
  0
ELLIPSE
  5
A68
330
A02
100
AcDbEntity
  8
ProjItem
100
AcDbEllipse
 10
462.501939468
 20
359.288476767
 30
0.000000000
 11
1.000000000
 21
0.000000000
 31
0.000000000
 40
0.577350269
 41
-3.926990817
 42
-3.141592654
  0
ELLIPSE
  5
A69
330
A02
100
AcDbEntity
  8
ProjItem
100
AcDbEllipse
 10
480.179608998
 20
349.082269505
 30
0.000000000
 11
1.000000000
 21
0.000000000
 31
0.000000000
 40
0.577350269
 41
-0.000000000
 42
-3.926990817
  0
ELLIPSE
  5
A6A
330
A02
100
AcDbEntity
  8
ProjItem
100
AcDbEllipse
 10
480.179608998
 20
349.082269505
 30
0.000000000
 11
1.000000000
 21
0.000000000
 31
0.000000000
 40
0.577350269
 41
-3.141592654
 42
-0.000000000
  0
ELLIPSE
  5
A6B
330
A02
100
AcDbEntity
  8
ProjItem
100
AcDbEllipse
 10
480.179608998
 20
349.082269505
 30
0.000000000
 11
1.000000000
 21
0.000000000
 31
0.000000000
 40
0.577350269
 41
-3.926990817
 42
-3.141592654
  0
LINE
  5
A6C
330
A02
100
AcDbEntity
  8
ProjItem
100
AcDbLine
 10
506.696113292
 20
355.818366298
 30
0.000000000
 11
471.340774233
 21
376.230780821
 31
0.000000000
  0
LINE
  5
A6D
330
A02
100
AcDbEntity
  8
ProjItem
100
AcDbLine
 10
532.151957415
 20
278.659439400
 30
0.000000000
 11
532.151957415
 21
269.269728720
 31
0.000000000
  0
LINE
  5
A6E
330
A02
100
AcDbEntity
  8
ProjItem
100
AcDbLine
 10
532.859064196
 20
266.820238977
 30
0.000000000
 11
532.859064196
 21
261.921259491
 31
0.000000000
  0
LINE
  5
A6F
330
A02
100
AcDbEntity
  8
ProjItem
100
AcDbLine
 10
532.859064196
 20
261.921259491
 30
0.000000000
 11
536.041044711
 21
260.084142184
 31
0.000000000
  0
LINE
  5
A70
330
A02
100
AcDbEntity
  8
ProjItem
100
AcDbLine
 10
535.687491321
 20
260.288266330
 30
0.000000000
 11
532.859064196
 21
265.187245815
 31
0.000000000
  0
LINE
  5
A71
330
A02
100
AcDbEntity
  8
ProjItem
100
AcDbLine
 10
530.030637071
 20
260.288266330
 30
0.000000000
 11
533.212617587
 21
258.451149023
 31
0.000000000
  0
LINE
  5
A72
330
A02
100
AcDbEntity
  8
ProjItem
100
AcDbLine
 10
532.859064196
 20
268.861480429
 30
0.000000000
 11
537.455258274
 21
260.900638765
 31
0.000000000
  0
LINE
  5
A73
330
A02
100
AcDbEntity
  8
ProjItem
100
AcDbLine
 10
531.444850634
 20
269.677977010
 30
0.000000000
 11
532.859064196
 21
268.861480429
 31
0.000000000
  0
LINE
  5
A74
330
A02
100
AcDbEntity
  8
ProjItem
100
AcDbLine
 10
530.030637071
 20
260.288266330
 30
0.000000000
 11
530.030637071
 21
267.228487267
 31
0.000000000
  0
LINE
  5
A75
330
A02
100
AcDbEntity
  8
ProjItem
100
AcDbLine
 10
536.571374797
 20
260.390328402
 30
0.000000000
 11
532.859064196
 21
266.820238977
 31
0.000000000
  0
LINE
  5
A76
330
A02
100
AcDbEntity
  8
ProjItem
100
AcDbLine
 10
528.616423509
 20
259.471769749
 30
0.000000000
 11
530.030637071
 21
260.288266330
 31
0.000000000
  0
LINE
  5
A77
330
A02
100
AcDbEntity
  8
ProjItem
100
AcDbLine
 10
538.162365055
 20
254.776914408
 30
0.000000000
 11
538.162365055
 21
234.364499885
 31
0.000000000
  0
LINE
  5
A78
330
A02
100
AcDbEntity
  8
ProjItem
100
AcDbLine
 10
535.333937930
 20
232.731506723
 30
0.000000000
 11
538.162365055
 21
234.364499885
 31
0.000000000
  0
LINE
  5
A79
330
A02
100
AcDbEntity
  8
ProjItem
100
AcDbLine
 10
532.505510806
 20
234.364499885
 30
0.000000000
 11
535.333937930
 21
235.997493047
 31
0.000000000
  0
LINE
  5
A7A
330
A02
100
AcDbEntity
  8
ProjItem
100
AcDbLine
 10
535.333937930
 20
232.731506723
 30
0.000000000
 11
532.505510806
 21
234.364499885
 31
0.000000000
  0
LINE
  5
A7B
330
A02
100
AcDbEntity
  8
ProjItem
100
AcDbLine
 10
538.162365055
 20
234.364499885
 30
0.000000000
 11
535.333937930
 21
235.997493047
 31
0.000000000
  0
LINE
  5
A7C
330
A02
100
AcDbEntity
  8
ProjItem
100
AcDbLine
 10
532.505510806
 20
234.364499885
 30
0.000000000
 11
532.505510806
 21
251.510928085
 31
0.000000000
  0
LINE
  5
A7D
330
A02
100
AcDbEntity
  8
ProjItem
100
AcDbLine
 10
535.333937930
 20
235.997493047
 30
0.000000000
 11
535.333937930
 21
253.143921246
 31
0.000000000
  0
LINE
  5
A7E
330
A02
100
AcDbEntity
  8
ProjItem
100
AcDbLine
 10
529.677083681
 20
256.409907570
 30
0.000000000
 11
528.616423509
 21
257.022280006
 31
0.000000000
  0
LINE
  5
A7F
330
A02
100
AcDbEntity
  8
ProjItem
100
AcDbLine
 10
532.151957415
 20
278.659439400
 30
0.000000000
 11
531.444850634
 21
279.067687691
 31
0.000000000
  0
LINE
  5
A80
330
A02
100
AcDbEntity
  8
ProjItem
100
AcDbLine
 10
413.358018176
 20
347.245152198
 30
0.000000000
 11
410.529591051
 21
345.612159037
 31
0.000000000
  0
LINE
  5
A81
330
A02
100
AcDbEntity
  8
ProjItem
100
AcDbLine
 10
413.358018176
 20
347.245152198
 30
0.000000000
 11
413.358018176
 21
330.098723999
 31
0.000000000
  0
LINE
  5
A82
330
A02
100
AcDbEntity
  8
ProjItem
100
AcDbLine
 10
410.529591051
 20
345.612159037
 30
0.000000000
 11
410.529591051
 21
335.405951775
 31
0.000000000
  0
LINE
  5
A83
330
A02
100
AcDbEntity
  8
ProjItem
100
AcDbLine
 10
410.529591051
 20
335.405951775
 30
0.000000000
 11
410.529591051
 21
333.364710323
 31
0.000000000
  0
LINE
  5
A84
330
A02
100
AcDbEntity
  8
ProjItem
100
AcDbLine
 10
409.822484270
 20
332.956462032
 30
0.000000000
 11
409.822484270
 21
332.139965451
 31
0.000000000
  0
ELLIPSE
  5
A85
330
A02
100
AcDbEntity
  8
ProjItem
100
AcDbEllipse
 10
411.943804613
 20
332.139965451
 30
0.000000000
 11
0.500000000
 21
0.866025404
 31
0.000000000
 40
0.577350269
 41
0.785398163
 42
3.141592654
  0
ELLIPSE
  5
A86
330
A02
100
AcDbEntity
  8
ProjItem
100
AcDbEllipse
 10
411.943804613
 20
332.139965451
 30
0.000000000
 11
0.500000000
 21
0.866025404
 31
0.000000000
 40
0.577350269
 41
3.141592654
 42
0.000000000
  0
ELLIPSE
  5
A87
330
A02
100
AcDbEntity
  8
ProjItem
100
AcDbEllipse
 10
411.943804613
 20
332.139965451
 30
0.000000000
 11
0.500000000
 21
0.866025404
 31
0.000000000
 40
0.577350269
 41
0.000000000
 42
0.785398163
  0
LINE
  5
A88
330
A02
100
AcDbEntity
  8
ProjItem
100
AcDbLine
 10
407.347610536
 20
333.568834468
 30
0.000000000
 11
404.519183411
 21
331.935841306
 31
0.000000000
  0
LINE
  5
A89
330
A02
100
AcDbEntity
  8
ProjItem
100
AcDbLine
 10
413.358018176
 20
330.098723999
 30
0.000000000
 11
407.347610536
 21
333.568834468
 31
0.000000000
  0
LINE
  5
A8A
330
A02
100
AcDbEntity
  8
ProjItem
100
AcDbLine
 10
410.529591051
 20
335.405951775
 30
0.000000000
 11
407.347610536
 21
333.568834468
 31
0.000000000
  0
LINE
  5
A8B
330
A02
100
AcDbEntity
  8
ProjItem
100
AcDbLine
 10
409.115377489
 20
332.548213742
 30
0.000000000
 11
410.529591051
 21
333.364710323
 31
0.000000000
  0
LINE
  5
A8C
330
A02
100
AcDbEntity
  8
ProjItem
100
AcDbLine
 10
412.650911394
 20
323.158503061
 30
0.000000000
 11
410.176037660
 21
324.587372078
 31
0.000000000
  0
LINE
  5
A8D
330
A02
100
AcDbEntity
  8
ProjItem
100
AcDbLine
 10
404.519183411
 20
327.853358401
 30
0.000000000
 11
403.812076630
 21
328.261606692
 31
0.000000000
  0
LINE
  5
A8E
330
A02
100
AcDbEntity
  8
ProjItem
100
AcDbLine
 10
403.812076630
 20
328.261606692
 30
0.000000000
 11
403.812076630
 21
331.527593016
 31
0.000000000
  0
LINE
  5
A8F
330
A02
100
AcDbEntity
  8
ProjItem
100
AcDbLine
 10
416.186445300
 20
325.199744513
 30
0.000000000
 11
416.186445300
 21
342.346172713
 31
0.000000000
  0
LINE
  5
A90
330
A02
100
AcDbEntity
  8
ProjItem
100
AcDbLine
 10
416.186445300
 20
325.199744513
 30
0.000000000
 11
412.650911394
 21
323.158503061
 31
0.000000000
  0
LINE
  5
A91
330
A02
100
AcDbEntity
  8
ProjItem
100
AcDbLine
 10
404.519183411
 20
331.935841306
 30
0.000000000
 11
403.812076630
 21
331.527593016
 31
0.000000000
  0
LINE
  5
A92
330
A02
100
AcDbEntity
  8
ProjItem
100
AcDbLine
 10
404.519183411
 20
328.669854982
 30
0.000000000
 11
403.812076630
 21
328.261606692
 31
0.000000000
  0
LINE
  5
A93
330
A02
100
AcDbEntity
  8
ProjItem
100
AcDbLine
 10
404.519183411
 20
328.669854982
 30
0.000000000
 11
404.519183411
 21
308.257440459
 31
0.000000000
  0
LINE
  5
A94
330
A02
100
AcDbEntity
  8
ProjItem
100
AcDbLine
 10
407.347610536
 20
309.890433621
 30
0.000000000
 11
404.519183411
 21
308.257440459
 31
0.000000000
  0
LINE
  5
A95
330
A02
100
AcDbEntity
  8
ProjItem
100
AcDbLine
 10
407.347610536
 20
333.568834468
 30
0.000000000
 11
407.347610536
 21
309.890433621
 31
0.000000000
  0
LINE
  5
A96
330
A02
100
AcDbEntity
  8
ProjItem
100
AcDbLine
 10
410.176037660
 20
308.257440459
 30
0.000000000
 11
407.347610536
 21
306.624447297
 31
0.000000000
  0
LINE
  5
A97
330
A02
100
AcDbEntity
  8
ProjItem
100
AcDbLine
 10
407.347610536
 20
309.890433621
 30
0.000000000
 11
410.176037660
 21
308.257440459
 31
0.000000000
  0
LINE
  5
A98
330
A02
100
AcDbEntity
  8
ProjItem
100
AcDbLine
 10
404.519183411
 20
308.257440459
 30
0.000000000
 11
407.347610536
 21
306.624447297
 31
0.000000000
  0
LINE
  5
A99
330
A02
100
AcDbEntity
  8
ProjItem
100
AcDbLine
 10
410.176037660
 20
308.257440459
 30
0.000000000
 11
410.176037660
 21
328.669854982
 31
0.000000000
  0
LINE
  5
A9A
330
A02
100
AcDbEntity
  8
ProjItem
100
AcDbLine
 10
410.176037660
 20
328.669854982
 30
0.000000000
 11
416.186445300
 21
325.199744513
 31
0.000000000
  0
LINE
  5
A9B
330
A02
100
AcDbEntity
  8
ProjItem
100
AcDbLine
 10
416.186445300
 20
342.346172713
 30
0.000000000
 11
416.893552082
 21
341.937924422
 31
0.000000000
  0
LINE
  5
A9C
330
A02
100
AcDbEntity
  8
ProjItem
100
AcDbLine
 10
416.893552082
 20
341.937924422
 30
0.000000000
 11
416.186445300
 21
341.529676132
 31
0.000000000
  0
LINE
  5
A9D
330
A02
100
AcDbEntity
  8
ProjItem
100
AcDbLine
 10
416.893552082
 20
345.203910746
 30
0.000000000
 11
416.893552082
 21
341.937924422
 31
0.000000000
  0
LINE
  5
A9E
330
A02
100
AcDbEntity
  8
ProjItem
100
AcDbLine
 10
416.893552082
 20
345.203910746
 30
0.000000000
 11
413.358018176
 21
347.245152198
 31
0.000000000
  0
LINE
  5
A9F
330
A02
100
AcDbEntity
  8
ProjItem
100
AcDbLine
 10
378.709785897
 20
285.191412048
 30
0.000000000
 11
381.538213022
 21
283.558418886
 31
0.000000000
  0
LINE
  5
AA0
330
A02
100
AcDbEntity
  8
ProjItem
100
AcDbLine
 10
378.709785897
 20
285.191412048
 30
0.000000000
 11
378.709785897
 21
288.457398372
 31
0.000000000
  0
LINE
  5
AA1
330
A02
100
AcDbEntity
  8
ProjItem
100
AcDbLine
 10
416.893552082
 20
307.236819733
 30
0.000000000
 11
419.721979206
 21
305.603826571
 31
0.000000000
  0
LINE
  5
AA2
330
A02
100
AcDbEntity
  8
ProjItem
100
AcDbLine
 10
416.893552082
 20
307.236819733
 30
0.000000000
 11
378.709785897
 21
285.191412048
 31
0.000000000
  0
LINE
  5
AA3
330
A02
100
AcDbEntity
  8
ProjItem
100
AcDbLine
 10
419.721979206
 20
305.603826571
 30
0.000000000
 11
381.538213022
 21
283.558418886
 31
0.000000000
  0
LINE
  5
AA4
330
A02
100
AcDbEntity
  8
ProjItem
100
AcDbLine
 10
411.236697832
 20
379.349797760
 30
0.000000000
 11
378.709785897
 21
288.457398372
 31
0.000000000
  0
LINE
  5
AA5
330
A02
100
AcDbEntity
  8
ProjItem
100
AcDbLine
 10
414.065124957
 20
308.869812895
 30
0.000000000
 11
381.898851417
 21
290.298606208
 31
0.000000000
  0
LINE
  5
AA6
330
A02
100
AcDbEntity
  8
ProjItem
100
AcDbLine
 10
411.236697832
 20
372.279559669
 30
0.000000000
 11
381.898851417
 21
290.298606208
 31
0.000000000
  0
LINE
  5
AA7
330
A02
100
AcDbEntity
  8
ProjItem
100
AcDbLine
 10
419.721979206
 20
305.603826571
 30
0.000000000
 11
419.721979206
 21
308.869812895
 31
0.000000000
  0
LINE
  5
AA8
330
A02
100
AcDbEntity
  8
ProjItem
100
AcDbLine
 10
411.236697832
 20
362.742879604
 30
0.000000000
 11
386.200417669
 21
292.782116642
 31
0.000000000
  0
LINE
  5
AA9
330
A02
100
AcDbEntity
  8
ProjItem
100
AcDbLine
 10
414.065124957
 20
390.519470988
 30
0.000000000
 11
414.065124957
 21
346.836903908
 31
0.000000000
  0
LINE
  5
AAA
330
A02
100
AcDbEntity
  8
ProjItem
100
AcDbLine
 10
411.236697832
 20
388.886477826
 30
0.000000000
 11
414.065124957
 21
390.519470988
 31
0.000000000
  0
LINE
  5
AAB
330
A02
100
AcDbEntity
  8
ProjItem
100
AcDbLine
 10
411.236697832
 20
346.020407327
 30
0.000000000
 11
411.236697832
 21
388.886477826
 31
0.000000000
  0
LINE
  5
AAC
330
A02
100
AcDbEntity
  8
ProjItem
100
AcDbLine
 10
563.971762568
 20
269.677977010
 30
0.000000000
 11
561.143335444
 21
271.310970172
 31
0.000000000
  0
LINE
  5
AAD
330
A02
100
AcDbEntity
  8
ProjItem
100
AcDbLine
 10
563.971762568
 20
272.943963334
 30
0.000000000
 11
561.143335444
 21
274.576956496
 31
0.000000000
  0
LINE
  5
AAE
330
A02
100
AcDbEntity
  8
ProjItem
100
AcDbLine
 10
563.971762568
 20
269.677977010
 30
0.000000000
 11
563.971762568
 21
272.943963334
 31
0.000000000
  0
LINE
  5
AAF
330
A02
100
AcDbEntity
  8
ProjItem
100
AcDbLine
 10
561.143335444
 20
271.310970172
 30
0.000000000
 11
561.143335444
 21
274.576956496
 31
0.000000000
  0
LINE
  5
AB0
330
A02
100
AcDbEntity
  8
ProjItem
100
AcDbLine
 10
525.787996384
 20
247.632569325
 30
0.000000000
 11
522.959569260
 21
249.265562487
 31
0.000000000
  0
LINE
  5
AB1
330
A02
100
AcDbEntity
  8
ProjItem
100
AcDbLine
 10
525.787996384
 20
247.632569325
 30
0.000000000
 11
563.971762568
 21
269.677977010
 31
0.000000000
  0
LINE
  5
AB2
330
A02
100
AcDbEntity
  8
ProjItem
100
AcDbLine
 10
522.959569260
 20
249.265562487
 30
0.000000000
 11
561.143335444
 21
271.310970172
 31
0.000000000
  0
LINE
  5
AB3
330
A02
100
AcDbEntity
  8
ProjItem
100
AcDbLine
 10
528.616423509
 20
330.915220580
 30
0.000000000
 11
525.787996384
 21
332.548213742
 31
0.000000000
  0
LINE
  5
AB4
330
A02
100
AcDbEntity
  8
ProjItem
100
AcDbLine
 10
528.616423509
 20
330.915220580
 30
0.000000000
 11
563.971762568
 21
272.943963334
 31
0.000000000
  0
LINE
  5
AB5
330
A02
100
AcDbEntity
  8
ProjItem
100
AcDbLine
 10
525.787996384
 20
332.548213742
 30
0.000000000
 11
561.143335444
 21
274.576956496
 31
0.000000000
  0
LINE
  5
AB6
330
A02
100
AcDbEntity
  8
ProjItem
100
AcDbLine
 10
528.616423509
 20
269.677977010
 30
0.000000000
 11
528.616423509
 21
255.797535134
 31
0.000000000
  0
LINE
  5
AB7
330
A02
100
AcDbEntity
  8
ProjItem
100
AcDbLine
 10
522.959569260
 20
330.915220580
 30
0.000000000
 11
525.787996384
 21
332.548213742
 31
0.000000000
  0
LINE
  5
AB8
330
A02
100
AcDbEntity
  8
ProjItem
100
AcDbLine
 10
522.959569260
 20
249.265562487
 30
0.000000000
 11
522.959569260
 21
330.915220580
 31
0.000000000
  0
LINE
  5
AB9
330
A02
100
AcDbEntity
  8
ProjItem
100
AcDbLine
 10
525.787996384
 20
325.477975650
 30
0.000000000
 11
557.954269924
 21
272.735748660
 31
0.000000000
  0
LINE
  5
ABA
330
A02
100
AcDbEntity
  8
ProjItem
100
AcDbLine
 10
525.787996384
 20
254.164541973
 30
0.000000000
 11
557.954269924
 21
272.735748660
 31
0.000000000
  0
LINE
  5
ABB
330
A02
100
AcDbEntity
  8
ProjItem
100
AcDbLine
 10
525.787996384
 20
325.477975650
 30
0.000000000
 11
525.787996384
 21
254.164541973
 31
0.000000000
  0
LINE
  5
ABC
330
A02
100
AcDbEntity
  8
ProjItem
100
AcDbLine
 10
528.616423509
 20
330.915220580
 30
0.000000000
 11
531.444850634
 21
329.282227418
 31
0.000000000
  0
LINE
  5
ABD
330
A02
100
AcDbEntity
  8
ProjItem
100
AcDbLine
 10
528.616423509
 20
269.677977010
 30
0.000000000
 11
531.444850634
 21
268.044983848
 31
0.000000000
  0
LINE
  5
ABE
330
A02
100
AcDbEntity
  8
ProjItem
100
AcDbLine
 10
528.616423509
 20
266.411990687
 30
0.000000000
 11
531.444850634
 21
268.044983848
 31
0.000000000
  0
LINE
  5
ABF
330
A02
100
AcDbEntity
  8
ProjItem
100
AcDbLine
 10
531.444850634
 20
268.044983848
 30
0.000000000
 11
531.444850634
 21
316.202574491
 31
0.000000000
  0
LINE
  5
AC0
330
A02
100
AcDbEntity
  8
ProjItem
100
AcDbLine
 10
531.444850634
 20
326.277520000
 30
0.000000000
 11
531.444850634
 21
329.282227418
 31
0.000000000
  0
ELLIPSE
  5
AC1
330
A02
100
AcDbEntity
  8
ProjItem
100
AcDbEllipse
 10
530.030637071
 20
301.521343666
 30
0.000000000
 11
0.500000000
 21
-0.866025404
 31
0.000000000
 40
0.577350269
 41
2.356194490
 42
3.141592654
  0
ELLIPSE
  5
AC2
330
A02
100
AcDbEntity
  8
ProjItem
100
AcDbEllipse
 10
530.030637071
 20
301.521343666
 30
0.000000000
 11
0.500000000
 21
-0.866025404
 31
0.000000000
 40
0.577350269
 41
3.141592654
 42
0.000000000
  0
ELLIPSE
  5
AC3
330
A02
100
AcDbEntity
  8
ProjItem
100
AcDbEllipse
 10
530.030637071
 20
301.521343666
 30
0.000000000
 11
0.500000000
 21
-0.866025404
 31
0.000000000
 40
0.577350269
 41
0.000000000
 42
2.356194490
  0
ELLIPSE
  5
AC4
330
A02
100
AcDbEntity
  8
ProjItem
100
AcDbEllipse
 10
530.030637071
 20
279.067687691
 30
0.000000000
 11
0.500000000
 21
-0.866025404
 31
0.000000000
 40
0.577350269
 41
2.356194490
 42
3.141592654
  0
ELLIPSE
  5
AC5
330
A02
100
AcDbEntity
  8
ProjItem
100
AcDbEllipse
 10
530.030637071
 20
279.067687691
 30
0.000000000
 11
0.500000000
 21
-0.866025404
 31
0.000000000
 40
0.577350269
 41
3.141592654
 42
0.000000000
  0
ELLIPSE
  5
AC6
330
A02
100
AcDbEntity
  8
ProjItem
100
AcDbEllipse
 10
530.030637071
 20
279.067687691
 30
0.000000000
 11
0.500000000
 21
-0.866025404
 31
0.000000000
 40
0.577350269
 41
0.000000000
 42
2.356194490
  0
LINE
  5
AC7
330
A02
100
AcDbEntity
  8
ProjItem
100
AcDbLine
 10
481.947375951
 20
225.587161640
 30
0.000000000
 11
484.775803075
 21
223.954168478
 31
0.000000000
  0
LINE
  5
AC8
330
A02
100
AcDbEntity
  8
ProjItem
100
AcDbLine
 10
481.947375951
 20
225.587161640
 30
0.000000000
 11
481.947375951
 21
228.853147964
 31
0.000000000
  0
LINE
  5
AC9
330
A02
100
AcDbEntity
  8
ProjItem
100
AcDbLine
 10
520.131142135
 20
247.632569325
 30
0.000000000
 11
522.959569260
 21
245.999576163
 31
0.000000000
  0
LINE
  5
ACA
330
A02
100
AcDbEntity
  8
ProjItem
100
AcDbLine
 10
520.131142135
 20
247.632569325
 30
0.000000000
 11
481.947375951
 21
225.587161640
 31
0.000000000
  0
LINE
  5
ACB
330
A02
100
AcDbEntity
  8
ProjItem
100
AcDbLine
 10
522.959569260
 20
245.999576163
 30
0.000000000
 11
484.775803075
 21
223.954168478
 31
0.000000000
  0
LINE
  5
ACC
330
A02
100
AcDbEntity
  8
ProjItem
100
AcDbLine
 10
517.302715010
 20
327.649234256
 30
0.000000000
 11
481.947375951
 21
228.853147964
 31
0.000000000
  0
LINE
  5
ACD
330
A02
100
AcDbEntity
  8
ProjItem
100
AcDbLine
 10
520.131142135
 20
326.016241094
 30
0.000000000
 11
520.131142135
 21
247.632569325
 31
0.000000000
  0
LINE
  5
ACE
330
A02
100
AcDbEntity
  8
ProjItem
100
AcDbLine
 10
517.302715010
 20
249.265562487
 30
0.000000000
 11
485.136441470
 21
230.694355800
 31
0.000000000
  0
LINE
  5
ACF
330
A02
100
AcDbEntity
  8
ProjItem
100
AcDbLine
 10
517.302715010
 20
320.578996165
 30
0.000000000
 11
485.136441470
 21
230.694355800
 31
0.000000000
  0
LINE
  5
AD0
330
A02
100
AcDbEntity
  8
ProjItem
100
AcDbLine
 10
517.302715010
 20
320.578996165
 30
0.000000000
 11
517.302715010
 21
249.265562487
 31
0.000000000
  0
LINE
  5
AD1
330
A02
100
AcDbEntity
  8
ProjItem
100
AcDbLine
 10
522.959569260
 20
245.999576163
 30
0.000000000
 11
522.959569260
 21
249.265562487
 31
0.000000000
  0
LINE
  5
AD2
330
A02
100
AcDbEntity
  8
ProjItem
100
AcDbLine
 10
517.302715010
 20
311.042316100
 30
0.000000000
 11
489.438007723
 21
233.177866234
 31
0.000000000
  0
LINE
  5
AD3
330
A02
100
AcDbEntity
  8
ProjItem
100
AcDbLine
 10
460.734172515
 20
329.282227418
 30
0.000000000
 11
457.905745390
 21
330.915220580
 31
0.000000000
  0
LINE
  5
AD4
330
A02
100
AcDbEntity
  8
ProjItem
100
AcDbLine
 10
460.734172515
 20
332.548213742
 30
0.000000000
 11
457.905745390
 21
334.181206904
 31
0.000000000
  0
LINE
  5
AD5
330
A02
100
AcDbEntity
  8
ProjItem
100
AcDbLine
 10
460.734172515
 20
329.282227418
 30
0.000000000
 11
460.734172515
 21
332.548213742
 31
0.000000000
  0
LINE
  5
AD6
330
A02
100
AcDbEntity
  8
ProjItem
100
AcDbLine
 10
457.905745390
 20
330.915220580
 30
0.000000000
 11
457.905745390
 21
334.181206904
 31
0.000000000
  0
LINE
  5
AD7
330
A02
100
AcDbEntity
  8
ProjItem
100
AcDbLine
 10
422.550406331
 20
307.236819733
 30
0.000000000
 11
419.721979206
 21
308.869812895
 31
0.000000000
  0
LINE
  5
AD8
330
A02
100
AcDbEntity
  8
ProjItem
100
AcDbLine
 10
422.550406331
 20
307.236819733
 30
0.000000000
 11
460.734172515
 21
329.282227418
 31
0.000000000
  0
LINE
  5
AD9
330
A02
100
AcDbEntity
  8
ProjItem
100
AcDbLine
 10
419.721979206
 20
308.869812895
 30
0.000000000
 11
457.905745390
 21
330.915220580
 31
0.000000000
  0
LINE
  5
ADA
330
A02
100
AcDbEntity
  8
ProjItem
100
AcDbLine
 10
425.378833456
 20
390.519470988
 30
0.000000000
 11
422.550406331
 21
392.152464149
 31
0.000000000
  0
LINE
  5
ADB
330
A02
100
AcDbEntity
  8
ProjItem
100
AcDbLine
 10
425.378833456
 20
390.519470988
 30
0.000000000
 11
460.734172515
 21
332.548213742
 31
0.000000000
  0
LINE
  5
ADC
330
A02
100
AcDbEntity
  8
ProjItem
100
AcDbLine
 10
422.550406331
 20
392.152464149
 30
0.000000000
 11
457.905745390
 21
334.181206904
 31
0.000000000
  0
LINE
  5
ADD
330
A02
100
AcDbEntity
  8
ProjItem
100
AcDbLine
 10
425.378833456
 20
380.444525479
 30
0.000000000
 11
425.378833456
 21
315.401785542
 31
0.000000000
  0
LINE
  5
ADE
330
A02
100
AcDbEntity
  8
ProjItem
100
AcDbLine
 10
419.721979206
 20
308.869812895
 30
0.000000000
 11
419.721979206
 21
329.282227418
 31
0.000000000
  0
LINE
  5
ADF
330
A02
100
AcDbEntity
  8
ProjItem
100
AcDbLine
 10
422.550406331
 20
330.915220580
 30
0.000000000
 11
419.721979206
 21
329.282227418
 31
0.000000000
  0
LINE
  5
AE0
330
A02
100
AcDbEntity
  8
ProjItem
100
AcDbLine
 10
422.550406331
 20
330.915220580
 30
0.000000000
 11
422.550406331
 21
313.768792380
 31
0.000000000
  0
LINE
  5
AE1
330
A02
100
AcDbEntity
  8
ProjItem
100
AcDbLine
 10
422.550406331
 20
313.768792380
 30
0.000000000
 11
454.716679871
 21
332.339999067
 31
0.000000000
  0
LINE
  5
AE2
330
A02
100
AcDbEntity
  8
ProjItem
100
AcDbLine
 10
422.550406331
 20
385.082226058
 30
0.000000000
 11
454.716679871
 21
332.339999067
 31
0.000000000
  0
LINE
  5
AE3
330
A02
100
AcDbEntity
  8
ProjItem
100
AcDbLine
 10
422.550406331
 20
392.152464149
 30
0.000000000
 11
422.550406331
 21
385.082226058
 31
0.000000000
  0
LINE
  5
AE4
330
A02
100
AcDbEntity
  8
ProjItem
100
AcDbLine
 10
416.893552082
 20
392.152464149
 30
0.000000000
 11
416.893552082
 21
330.915220580
 31
0.000000000
  0
LINE
  5
AE5
330
A02
100
AcDbEntity
  8
ProjItem
100
AcDbLine
 10
419.721979206
 20
329.282227418
 30
0.000000000
 11
416.893552082
 21
330.915220580
 31
0.000000000
  0
LINE
  5
AE6
330
A02
100
AcDbEntity
  8
ProjItem
100
AcDbLine
 10
419.721979206
 20
393.785457311
 30
0.000000000
 11
416.893552082
 21
392.152464149
 31
0.000000000
  0
LINE
  5
AE7
330
A02
100
AcDbEntity
  8
ProjItem
100
AcDbLine
 10
422.550406331
 20
392.152464149
 30
0.000000000
 11
419.721979206
 21
393.785457311
 31
0.000000000
  0
LINE
  5
AE8
330
A02
100
AcDbEntity
  8
ProjItem
100
AcDbLine
 10
422.550406331
 20
330.915220580
 30
0.000000000
 11
419.721979206
 21
332.548213742
 31
0.000000000
  0
LINE
  5
AE9
330
A02
100
AcDbEntity
  8
ProjItem
100
AcDbLine
 10
419.721979206
 20
332.548213742
 30
0.000000000
 11
419.721979206
 21
393.785457311
 31
0.000000000
  0
ELLIPSE
  5
AEA
330
A02
100
AcDbEntity
  8
ProjItem
100
AcDbEllipse
 10
421.136192769
 20
364.391580398
 30
0.000000000
 11
-0.500000000
 21
0.866025404
 31
0.000000000
 40
0.577350269
 41
-0.000000000
 42
-3.926990817
  0
ELLIPSE
  5
AEB
330
A02
100
AcDbEntity
  8
ProjItem
100
AcDbEllipse
 10
421.136192769
 20
364.391580398
 30
0.000000000
 11
-0.500000000
 21
0.866025404
 31
0.000000000
 40
0.577350269
 41
-3.141592654
 42
-0.000000000
  0
ELLIPSE
  5
AEC
330
A02
100
AcDbEntity
  8
ProjItem
100
AcDbEllipse
 10
421.136192769
 20
364.391580398
 30
0.000000000
 11
-0.500000000
 21
0.866025404
 31
0.000000000
 40
0.577350269
 41
-3.926990817
 42
-3.141592654
  0
ELLIPSE
  5
AED
330
A02
100
AcDbEntity
  8
ProjItem
100
AcDbEllipse
 10
421.136192769
 20
341.937924422
 30
0.000000000
 11
-0.500000000
 21
0.866025404
 31
0.000000000
 40
0.577350269
 41
-0.000000000
 42
-3.926990817
  0
ELLIPSE
  5
AEE
330
A02
100
AcDbEntity
  8
ProjItem
100
AcDbEllipse
 10
421.136192769
 20
341.937924422
 30
0.000000000
 11
-0.500000000
 21
0.866025404
 31
0.000000000
 40
0.577350269
 41
-3.141592654
 42
-0.000000000
  0
ELLIPSE
  5
AEF
330
A02
100
AcDbEntity
  8
ProjItem
100
AcDbEllipse
 10
421.136192769
 20
341.937924422
 30
0.000000000
 11
-0.500000000
 21
0.866025404
 31
0.000000000
 40
0.577350269
 41
-3.926990817
 42
-3.141592654
  0
LINE
  5
AF0
330
A02
100
AcDbEntity
  8
ProjItem
100
AcDbLine
 10
416.893552082
 20
330.915220580
 30
0.000000000
 11
419.721979206
 21
332.548213742
 31
0.000000000
  0
LINE
  5
AF1
330
A02
100
AcDbEntity
  8
ProjItem001
100
AcDbLine
 10
64.933404612
 20
91.255014507
 30
0.000000000
 11
64.933404612
 21
95.255014507
 31
0.000000000
  0
LINE
  5
AF2
330
A02
100
AcDbEntity
  8
ProjItem001
100
AcDbLine
 10
64.933404612
 20
91.255014507
 30
0.000000000
 11
222.933404612
 21
91.255014507
 31
0.000000000
  0
LINE
  5
AF3
330
A02
100
AcDbEntity
  8
ProjItem001
100
AcDbLine
 10
64.933404612
 20
95.255014507
 30
0.000000000
 11
222.933404612
 21
95.255014507
 31
0.000000000
  0
LINE
  5
AF4
330
A02
100
AcDbEntity
  8
ProjItem001
100
AcDbLine
 10
222.933404612
 20
91.255014507
 30
0.000000000
 11
222.933404612
 21
95.255014507
 31
0.000000000
  0
CIRCLE
  5
AF5
330
A02
100
AcDbEntity
  8
ProjItem001
100
AcDbCircle
 10
131.433404612
 20
93.255014507
 30
0.000000000
 40
1.000000000
  0
CIRCLE
  5
AF6
330
A02
100
AcDbEntity
  8
ProjItem001
100
AcDbCircle
 10
156.433404612
 20
93.255014507
 30
0.000000000
 40
1.000000000
  0
LINE
  5
AF7
330
A02
100
AcDbEntity
  8
ProjItem001
100
AcDbLine
 10
118.933404612
 20
68.255014507
 30
0.000000000
 11
118.933404612
 21
91.255014507
 31
0.000000000
  0
LINE
  5
AF8
330
A02
100
AcDbEntity
  8
ProjItem001
100
AcDbLine
 10
118.933404612
 20
95.255014507
 30
0.000000000
 11
118.933404612
 21
118.255014507
 31
0.000000000
  0
LINE
  5
AF9
330
A02
100
AcDbEntity
  8
ProjItem001
100
AcDbLine
 10
118.933404612
 20
118.255014507
 30
0.000000000
 11
168.933404612
 21
118.255014507
 31
0.000000000
  0
LINE
  5
AFA
330
A02
100
AcDbEntity
  8
ProjItem001
100
AcDbLine
 10
168.933404612
 20
118.255014507
 30
0.000000000
 11
168.933404612
 21
95.255014507
 31
0.000000000
  0
LINE
  5
AFB
330
A02
100
AcDbEntity
  8
ProjItem001
100
AcDbLine
 10
168.933404612
 20
91.255014507
 30
0.000000000
 11
168.933404612
 21
68.255014507
 31
0.000000000
  0
LINE
  5
AFC
330
A02
100
AcDbEntity
  8
ProjItem001
100
AcDbLine
 10
168.933404612
 20
68.255014507
 30
0.000000000
 11
118.933404612
 21
68.255014507
 31
0.000000000
  0
LINE
  5
AFD
330
A02
100
AcDbEntity
  8
ProjItem001
100
AcDbLine
 10
227.933404612
 20
95.255014507
 30
0.000000000
 11
227.933404612
 21
91.255014507
 31
0.000000000
  0
LINE
  5
AFE
330
A02
100
AcDbEntity
  8
ProjItem001
100
AcDbLine
 10
236.433404612
 20
95.255014507
 30
0.000000000
 11
236.433404612
 21
91.255014507
 31
0.000000000
  0
LINE
  5
AFF
330
A02
100
AcDbEntity
  8
ProjItem001
100
AcDbLine
 10
227.933404612
 20
95.255014507
 30
0.000000000
 11
236.433404612
 21
95.255014507
 31
0.000000000
  0
LINE
  5
B00
330
A02
100
AcDbEntity
  8
ProjItem001
100
AcDbLine
 10
227.933404612
 20
91.255014507
 30
0.000000000
 11
236.433404612
 21
91.255014507
 31
0.000000000
  0
LINE
  5
B01
330
A02
100
AcDbEntity
  8
ProjItem001
100
AcDbLine
 10
227.933404612
 20
90.255014507
 30
0.000000000
 11
236.433404612
 21
90.255014507
 31
0.000000000
  0
LINE
  5
B02
330
A02
100
AcDbEntity
  8
ProjItem001
100
AcDbLine
 10
223.933404612
 20
90.255014507
 30
0.000000000
 11
227.933404612
 21
90.255014507
 31
0.000000000
  0
LINE
  5
B03
330
A02
100
AcDbEntity
  8
ProjItem001
100
AcDbLine
 10
223.933404612
 20
91.255014507
 30
0.000000000
 11
223.933404612
 21
90.255014507
 31
0.000000000
  0
LINE
  5
B04
330
A02
100
AcDbEntity
  8
ProjItem001
100
AcDbLine
 10
236.433404612
 20
91.255014507
 30
0.000000000
 11
236.433404612
 21
90.255014507
 31
0.000000000
  0
LINE
  5
B05
330
A02
100
AcDbEntity
  8
ProjItem001
100
AcDbLine
 10
227.933404612
 20
91.255014507
 30
0.000000000
 11
227.933404612
 21
90.255014507
 31
0.000000000
  0
LINE
  5
B06
330
A02
100
AcDbEntity
  8
ProjItem001
100
AcDbLine
 10
222.933404612
 20
95.255014507
 30
0.000000000
 11
227.933404612
 21
95.255014507
 31
0.000000000
  0
LINE
  5
B07
330
A02
100
AcDbEntity
  8
ProjItem001
100
AcDbLine
 10
227.933404612
 20
91.255014507
 30
0.000000000
 11
222.933404612
 21
91.255014507
 31
0.000000000
  0
LINE
  5
B08
330
A02
100
AcDbEntity
  8
ProjItem001
100
AcDbLine
 10
59.933404612
 20
91.255014507
 30
0.000000000
 11
59.933404612
 21
95.255014507
 31
0.000000000
  0
LINE
  5
B09
330
A02
100
AcDbEntity
  8
ProjItem001
100
AcDbLine
 10
51.433404612
 20
91.255014507
 30
0.000000000
 11
51.433404612
 21
95.255014507
 31
0.000000000
  0
LINE
  5
B0A
330
A02
100
AcDbEntity
  8
ProjItem001
100
AcDbLine
 10
59.933404612
 20
91.255014507
 30
0.000000000
 11
51.433404612
 21
91.255014507
 31
0.000000000
  0
LINE
  5
B0B
330
A02
100
AcDbEntity
  8
ProjItem001
100
AcDbLine
 10
59.933404612
 20
95.255014507
 30
0.000000000
 11
51.433404612
 21
95.255014507
 31
0.000000000
  0
LINE
  5
B0C
330
A02
100
AcDbEntity
  8
ProjItem001
100
AcDbLine
 10
59.933404612
 20
96.255014507
 30
0.000000000
 11
51.433404612
 21
96.255014507
 31
0.000000000
  0
LINE
  5
B0D
330
A02
100
AcDbEntity
  8
ProjItem001
100
AcDbLine
 10
63.933404612
 20
96.255014507
 30
0.000000000
 11
59.933404612
 21
96.255014507
 31
0.000000000
  0
LINE
  5
B0E
330
A02
100
AcDbEntity
  8
ProjItem001
100
AcDbLine
 10
63.933404612
 20
95.255014507
 30
0.000000000
 11
63.933404612
 21
96.255014507
 31
0.000000000
  0
LINE
  5
B0F
330
A02
100
AcDbEntity
  8
ProjItem001
100
AcDbLine
 10
51.433404612
 20
95.255014507
 30
0.000000000
 11
51.433404612
 21
96.255014507
 31
0.000000000
  0
LINE
  5
B10
330
A02
100
AcDbEntity
  8
ProjItem001
100
AcDbLine
 10
59.933404612
 20
95.255014507
 30
0.000000000
 11
59.933404612
 21
96.255014507
 31
0.000000000
  0
LINE
  5
B11
330
A02
100
AcDbEntity
  8
ProjItem001
100
AcDbLine
 10
64.933404612
 20
91.255014507
 30
0.000000000
 11
59.933404612
 21
91.255014507
 31
0.000000000
  0
LINE
  5
B12
330
A02
100
AcDbEntity
  8
ProjItem001
100
AcDbLine
 10
59.933404612
 20
95.255014507
 30
0.000000000
 11
64.933404612
 21
95.255014507
 31
0.000000000
  0
LINE
  5
B13
330
A02
100
AcDbEntity
  8
ProjItem001
100
AcDbLine
 10
68.933404612
 20
149.255014507
 30
0.000000000
 11
72.933404612
 21
149.255014507
 31
0.000000000
  0
LINE
  5
B14
330
A02
100
AcDbEntity
  8
ProjItem001
100
AcDbLine
 10
68.933404612
 20
99.255014507
 30
0.000000000
 11
72.933404612
 21
99.255014507
 31
0.000000000
  0
LINE
  5
B15
330
A02
100
AcDbEntity
  8
ProjItem001
100
AcDbLine
 10
68.933404612
 20
99.255014507
 30
0.000000000
 11
68.933404612
 21
149.255014507
 31
0.000000000
  0
LINE
  5
B16
330
A02
100
AcDbEntity
  8
ProjItem001
100
AcDbLine
 10
72.933404612
 20
99.255014507
 30
0.000000000
 11
72.933404612
 21
149.255014507
 31
0.000000000
  0
LINE
  5
B17
330
A02
100
AcDbEntity
  8
ProjItem001
100
AcDbLine
 10
72.933404612
 20
95.255014507
 30
0.000000000
 11
72.933404612
 21
99.255014507
 31
0.000000000
  0
LINE
  5
B18
330
A02
100
AcDbEntity
  8
ProjItem001
100
AcDbLine
 10
64.933404612
 20
95.255014507
 30
0.000000000
 11
72.933404612
 21
95.255014507
 31
0.000000000
  0
LINE
  5
B19
330
A02
100
AcDbEntity
  8
ProjItem001
100
AcDbLine
 10
68.933404612
 20
99.255014507
 30
0.000000000
 11
64.933404612
 21
99.255014507
 31
0.000000000
  0
LINE
  5
B1A
330
A02
100
AcDbEntity
  8
ProjItem001
100
AcDbLine
 10
64.933404612
 20
99.255014507
 30
0.000000000
 11
64.933404612
 21
95.255014507
 31
0.000000000
  0
LINE
  5
B1B
330
A02
100
AcDbEntity
  8
ProjItem001
100
AcDbLine
 10
218.933404612
 20
37.255014507
 30
0.000000000
 11
214.933404612
 21
37.255014507
 31
0.000000000
  0
LINE
  5
B1C
330
A02
100
AcDbEntity
  8
ProjItem001
100
AcDbLine
 10
218.933404612
 20
87.255014507
 30
0.000000000
 11
214.933404612
 21
87.255014507
 31
0.000000000
  0
LINE
  5
B1D
330
A02
100
AcDbEntity
  8
ProjItem001
100
AcDbLine
 10
218.933404612
 20
87.255014507
 30
0.000000000
 11
218.933404612
 21
37.255014507
 31
0.000000000
  0
LINE
  5
B1E
330
A02
100
AcDbEntity
  8
ProjItem001
100
AcDbLine
 10
214.933404612
 20
87.255014507
 30
0.000000000
 11
214.933404612
 21
37.255014507
 31
0.000000000
  0
LINE
  5
B1F
330
A02
100
AcDbEntity
  8
ProjItem001
100
AcDbLine
 10
214.933404612
 20
91.255014507
 30
0.000000000
 11
214.933404612
 21
87.255014507
 31
0.000000000
  0
LINE
  5
B20
330
A02
100
AcDbEntity
  8
ProjItem001
100
AcDbLine
 10
222.933404612
 20
91.255014507
 30
0.000000000
 11
214.933404612
 21
91.255014507
 31
0.000000000
  0
LINE
  5
B21
330
A02
100
AcDbEntity
  8
ProjItem001
100
AcDbLine
 10
218.933404612
 20
87.255014507
 30
0.000000000
 11
222.933404612
 21
87.255014507
 31
0.000000000
  0
LINE
  5
B22
330
A02
100
AcDbEntity
  8
ProjItem001
100
AcDbLine
 10
222.933404612
 20
87.255014507
 30
0.000000000
 11
222.933404612
 21
91.255014507
 31
0.000000000
  0
LINE
  5
B23
330
A02
100
AcDbEntity
  8
ProjItem001
100
AcDbLine
 10
214.933404612
 20
149.255014507
 30
0.000000000
 11
218.933404612
 21
149.255014507
 31
0.000000000
  0
LINE
  5
B24
330
A02
100
AcDbEntity
  8
ProjItem001
100
AcDbLine
 10
214.933404612
 20
99.255014507
 30
0.000000000
 11
218.933404612
 21
99.255014507
 31
0.000000000
  0
LINE
  5
B25
330
A02
100
AcDbEntity
  8
ProjItem001
100
AcDbLine
 10
214.933404612
 20
99.255014507
 30
0.000000000
 11
214.933404612
 21
149.255014507
 31
0.000000000
  0
LINE
  5
B26
330
A02
100
AcDbEntity
  8
ProjItem001
100
AcDbLine
 10
218.933404612
 20
99.255014507
 30
0.000000000
 11
218.933404612
 21
149.255014507
 31
0.000000000
  0
LINE
  5
B27
330
A02
100
AcDbEntity
  8
ProjItem001
100
AcDbLine
 10
214.933404612
 20
95.255014507
 30
0.000000000
 11
214.933404612
 21
99.255014507
 31
0.000000000
  0
LINE
  5
B28
330
A02
100
AcDbEntity
  8
ProjItem001
100
AcDbLine
 10
214.933404612
 20
95.255014507
 30
0.000000000
 11
222.933404612
 21
95.255014507
 31
0.000000000
  0
LINE
  5
B29
330
A02
100
AcDbEntity
  8
ProjItem001
100
AcDbLine
 10
222.933404612
 20
99.255014507
 30
0.000000000
 11
222.933404612
 21
95.255014507
 31
0.000000000
  0
LINE
  5
B2A
330
A02
100
AcDbEntity
  8
ProjItem001
100
AcDbLine
 10
218.933404612
 20
99.255014507
 30
0.000000000
 11
222.933404612
 21
99.255014507
 31
0.000000000
  0
LINE
  5
B2B
330
A02
100
AcDbEntity
  8
ProjItem001
100
AcDbLine
 10
72.933404612
 20
37.255014507
 30
0.000000000
 11
68.933404612
 21
37.255014507
 31
0.000000000
  0
LINE
  5
B2C
330
A02
100
AcDbEntity
  8
ProjItem001
100
AcDbLine
 10
72.933404612
 20
87.255014507
 30
0.000000000
 11
68.933404612
 21
87.255014507
 31
0.000000000
  0
LINE
  5
B2D
330
A02
100
AcDbEntity
  8
ProjItem001
100
AcDbLine
 10
72.933404612
 20
87.255014507
 30
0.000000000
 11
72.933404612
 21
37.255014507
 31
0.000000000
  0
LINE
  5
B2E
330
A02
100
AcDbEntity
  8
ProjItem001
100
AcDbLine
 10
68.933404612
 20
87.255014507
 30
0.000000000
 11
68.933404612
 21
37.255014507
 31
0.000000000
  0
LINE
  5
B2F
330
A02
100
AcDbEntity
  8
ProjItem001
100
AcDbLine
 10
72.933404612
 20
91.255014507
 30
0.000000000
 11
72.933404612
 21
87.255014507
 31
0.000000000
  0
LINE
  5
B30
330
A02
100
AcDbEntity
  8
ProjItem001
100
AcDbLine
 10
72.933404612
 20
91.255014507
 30
0.000000000
 11
64.933404612
 21
91.255014507
 31
0.000000000
  0
LINE
  5
B31
330
A02
100
AcDbEntity
  8
ProjItem001
100
AcDbLine
 10
64.933404612
 20
87.255014507
 30
0.000000000
 11
64.933404612
 21
91.255014507
 31
0.000000000
  0
LINE
  5
B32
330
A02
100
AcDbEntity
  8
ProjItem001
100
AcDbLine
 10
68.933404612
 20
87.255014507
 30
0.000000000
 11
64.933404612
 21
87.255014507
 31
0.000000000
  0
LINE
  5
B33
330
A02
100
AcDbEntity
  8
ProjItem002
100
AcDbLine
 10
327.843774153
 20
242.724731374
 30
0.000000000
 11
327.843774153
 21
300.224731374
 31
0.000000000
  0
LINE
  5
B34
330
A02
100
AcDbEntity
  8
ProjItem002
100
AcDbLine
 10
323.843774153
 20
200.224731374
 30
0.000000000
 11
323.843774153
 21
217.724731374
 31
0.000000000
  0
LINE
  5
B35
330
A02
100
AcDbEntity
  8
ProjItem002
100
AcDbLine
 10
323.843774153
 20
242.724731374
 30
0.000000000
 11
323.843774153
 21
300.224731374
 31
0.000000000
  0
LINE
  5
B36
330
A02
100
AcDbEntity
  8
ProjItem002
100
AcDbLine
 10
327.843774153
 20
300.224731374
 30
0.000000000
 11
323.843774153
 21
300.224731374
 31
0.000000000
  0
LINE
  5
B37
330
A02
100
AcDbEntity
  8
ProjItem002
100
AcDbLine
 10
350.843774153
 20
294.224731374
 30
0.000000000
 11
350.843774153
 21
296.224731374
 31
0.000000000
  0
LINE
  5
B38
330
A02
100
AcDbEntity
  8
ProjItem002
100
AcDbLine
 10
300.843774153
 20
294.224731374
 30
0.000000000
 11
300.843774153
 21
296.224731374
 31
0.000000000
  0
LINE
  5
B39
330
A02
100
AcDbEntity
  8
ProjItem002
100
AcDbLine
 10
350.843774153
 20
294.224731374
 30
0.000000000
 11
334.968774153
 21
294.224731374
 31
0.000000000
  0
LINE
  5
B3A
330
A02
100
AcDbEntity
  8
ProjItem002
100
AcDbLine
 10
316.718774153
 20
294.224731374
 30
0.000000000
 11
300.843774153
 21
294.224731374
 31
0.000000000
  0
LINE
  5
B3B
330
A02
100
AcDbEntity
  8
ProjItem002
100
AcDbLine
 10
350.843774153
 20
296.224731374
 30
0.000000000
 11
333.927107487
 21
296.224731374
 31
0.000000000
  0
LINE
  5
B3C
330
A02
100
AcDbEntity
  8
ProjItem002
100
AcDbLine
 10
317.760440820
 20
296.224731374
 30
0.000000000
 11
300.843774153
 21
296.224731374
 31
0.000000000
  0
LINE
  5
B3D
330
A02
100
AcDbEntity
  8
ProjItem002
100
AcDbLine
 10
327.843774153
 20
242.724731374
 30
0.000000000
 11
323.843774153
 21
242.724731374
 31
0.000000000
  0
LINE
  5
B3E
330
A02
100
AcDbEntity
  8
ProjItem002
100
AcDbLine
 10
327.843774153
 20
242.724731374
 30
0.000000000
 11
327.843774153
 21
221.724731374
 31
0.000000000
  0
LINE
  5
B3F
330
A02
100
AcDbEntity
  8
ProjItem002
100
AcDbLine
 10
323.843774153
 20
242.724731374
 30
0.000000000
 11
323.843774153
 21
230.224731374
 31
0.000000000
  0
CIRCLE
  5
B40
330
A02
100
AcDbEntity
  8
ProjItem002
100
AcDbCircle
 10
325.843774153
 20
225.224731374
 30
0.000000000
 40
1.000000000
  0
LINE
  5
B41
330
A02
100
AcDbEntity
  8
ProjItem002
100
AcDbLine
 10
327.843774153
 20
221.724731374
 30
0.000000000
 11
323.843774153
 21
221.724731374
 31
0.000000000
  0
LINE
  5
B42
330
A02
100
AcDbEntity
  8
ProjItem002
100
AcDbLine
 10
323.843774153
 20
230.224731374
 30
0.000000000
 11
323.843774153
 21
221.724731374
 31
0.000000000
  0
LINE
  5
B43
330
A02
100
AcDbEntity
  8
ProjItem002
100
AcDbLine
 10
322.843774153
 20
217.724731374
 30
0.000000000
 11
322.843774153
 21
221.724731374
 31
0.000000000
  0
LINE
  5
B44
330
A02
100
AcDbEntity
  8
ProjItem002
100
AcDbLine
 10
322.843774153
 20
230.224731374
 30
0.000000000
 11
322.843774153
 21
221.724731374
 31
0.000000000
  0
LINE
  5
B45
330
A02
100
AcDbEntity
  8
ProjItem002
100
AcDbLine
 10
323.843774153
 20
221.724731374
 30
0.000000000
 11
322.843774153
 21
221.724731374
 31
0.000000000
  0
LINE
  5
B46
330
A02
100
AcDbEntity
  8
ProjItem002
100
AcDbLine
 10
323.843774153
 20
217.724731374
 30
0.000000000
 11
322.843774153
 21
217.724731374
 31
0.000000000
  0
LINE
  5
B47
330
A02
100
AcDbEntity
  8
ProjItem002
100
AcDbLine
 10
323.843774153
 20
217.724731374
 30
0.000000000
 11
323.843774153
 21
192.724731374
 31
0.000000000
  0
LINE
  5
B48
330
A02
100
AcDbEntity
  8
ProjItem002
100
AcDbLine
 10
327.843774153
 20
192.724731374
 30
0.000000000
 11
323.843774153
 21
192.724731374
 31
0.000000000
  0
LINE
  5
B49
330
A02
100
AcDbEntity
  8
ProjItem002
100
AcDbLine
 10
327.843774153
 20
221.724731374
 30
0.000000000
 11
327.843774153
 21
192.724731374
 31
0.000000000
  0
LINE
  5
B4A
330
A02
100
AcDbEntity
  8
ProjItem002
100
AcDbLine
 10
323.843774153
 20
230.224731374
 30
0.000000000
 11
322.843774153
 21
230.224731374
 31
0.000000000
  0
LINE
  5
B4B
330
A02
100
AcDbEntity
  8
ProjItem002
100
AcDbLine
 10
269.843774153
 20
200.224731374
 30
0.000000000
 11
269.843774153
 21
204.224731374
 31
0.000000000
  0
LINE
  5
B4C
330
A02
100
AcDbEntity
  8
ProjItem002
100
AcDbLine
 10
323.843774153
 20
200.224731374
 30
0.000000000
 11
269.843774153
 21
200.224731374
 31
0.000000000
  0
LINE
  5
B4D
330
A02
100
AcDbEntity
  8
ProjItem002
100
AcDbLine
 10
319.843774153
 20
300.224731374
 30
0.000000000
 11
269.843774153
 21
204.224731374
 31
0.000000000
  0
LINE
  5
B4E
330
A02
100
AcDbEntity
  8
ProjItem002
100
AcDbLine
 10
319.843774153
 20
225.224731374
 30
0.000000000
 11
319.843774153
 21
204.224731374
 31
0.000000000
  0
LINE
  5
B4F
330
A02
100
AcDbEntity
  8
ProjItem002
100
AcDbLine
 10
319.843774153
 20
204.224731374
 30
0.000000000
 11
274.353793863
 21
204.224731374
 31
0.000000000
  0
LINE
  5
B50
330
A02
100
AcDbEntity
  8
ProjItem002
100
AcDbLine
 10
319.843774153
 20
291.565493532
 30
0.000000000
 11
274.353793863
 21
204.224731374
 31
0.000000000
  0
LINE
  5
B51
330
A02
100
AcDbEntity
  8
ProjItem002
100
AcDbLine
 10
323.843774153
 20
300.224731374
 30
0.000000000
 11
323.843774153
 21
242.724731374
 31
0.000000000
  0
LINE
  5
B52
330
A02
100
AcDbEntity
  8
ProjItem002
100
AcDbLine
 10
319.843774153
 20
300.224731374
 30
0.000000000
 11
323.843774153
 21
300.224731374
 31
0.000000000
  0
LINE
  5
B53
330
A02
100
AcDbEntity
  8
ProjItem002
100
AcDbLine
 10
322.843774153
 20
225.224731374
 30
0.000000000
 11
319.843774153
 21
225.224731374
 31
0.000000000
  0
LINE
  5
B54
330
A02
100
AcDbEntity
  8
ProjItem002
100
AcDbLine
 10
319.843774153
 20
225.224731374
 30
0.000000000
 11
319.843774153
 21
300.224731374
 31
0.000000000
  0
LINE
  5
B55
330
A02
100
AcDbEntity
  8
ProjItem002
100
AcDbLine
 10
331.843774153
 20
204.224731374
 30
0.000000000
 11
377.333754444
 21
204.224731374
 31
0.000000000
  0
LINE
  5
B56
330
A02
100
AcDbEntity
  8
ProjItem002
100
AcDbLine
 10
319.843774153
 20
204.224731374
 30
0.000000000
 11
274.353793863
 21
204.224731374
 31
0.000000000
  0
LINE
  5
B57
330
A02
100
AcDbEntity
  8
ProjItem002
100
AcDbLine
 10
381.843774153
 20
200.224731374
 30
0.000000000
 11
381.843774153
 21
204.224731374
 31
0.000000000
  0
LINE
  5
B58
330
A02
100
AcDbEntity
  8
ProjItem002
100
AcDbLine
 10
327.843774153
 20
200.224731374
 30
0.000000000
 11
381.843774153
 21
200.224731374
 31
0.000000000
  0
LINE
  5
B59
330
A02
100
AcDbEntity
  8
ProjItem002
100
AcDbLine
 10
331.843774153
 20
300.224731374
 30
0.000000000
 11
381.843774153
 21
204.224731374
 31
0.000000000
  0
LINE
  5
B5A
330
A02
100
AcDbEntity
  8
ProjItem002
100
AcDbLine
 10
331.843774153
 20
225.224731374
 30
0.000000000
 11
331.843774153
 21
204.224731374
 31
0.000000000
  0
LINE
  5
B5B
330
A02
100
AcDbEntity
  8
ProjItem002
100
AcDbLine
 10
331.843774153
 20
204.224731374
 30
0.000000000
 11
377.333754444
 21
204.224731374
 31
0.000000000
  0
LINE
  5
B5C
330
A02
100
AcDbEntity
  8
ProjItem002
100
AcDbLine
 10
331.843774153
 20
291.565493532
 30
0.000000000
 11
377.333754444
 21
204.224731374
 31
0.000000000
  0
LINE
  5
B5D
330
A02
100
AcDbEntity
  8
ProjItem002
100
AcDbLine
 10
327.843774153
 20
300.224731374
 30
0.000000000
 11
327.843774153
 21
242.724731374
 31
0.000000000
  0
LINE
  5
B5E
330
A02
100
AcDbEntity
  8
ProjItem002
100
AcDbLine
 10
331.843774153
 20
300.224731374
 30
0.000000000
 11
327.843774153
 21
300.224731374
 31
0.000000000
  0
LINE
  5
B5F
330
A02
100
AcDbEntity
  8
ProjItem002
100
AcDbLine
 10
331.843774153
 20
225.224731374
 30
0.000000000
 11
331.843774153
 21
300.224731374
 31
0.000000000
  0
LINE
  5
B60
330
A02
100
AcDbEntity
  8
ProjItem002
100
AcDbLine
 10
327.843774153
 20
225.224731374
 30
0.000000000
 11
331.843774153
 21
225.224731374
 31
0.000000000
  0
ENDSEC
  0
SECTION
  2
OBJECTS
  0
DICTIONARY
  5
F000
330
0
100
AcDbDictionary
  3
ACAD_GROUP
350
F001
  0
DICTIONARY
  5
F001
330
F000
100
AcDbDictionary
  0
ENDSEC
  0
EOF